<svg width="24" height="24" viewBox="0 0 24 24" fill="none" xmlns="http://www.w3.org/2000/svg">
    <path d="M11.4863 18.4424V17.2119C10.8711 17.1344 10.3698 16.9977 9.98242 16.8018C9.59961 16.6012 9.26693 16.2799 8.98438 15.8379C8.70638 15.3958 8.5446 14.8558 8.49902 14.2178L9.73633 13.9854C9.83203 14.6462 10.0007 15.1315 10.2422 15.4414C10.5885 15.8789 11.0033 16.1227 11.4863 16.1729V12.2559C10.9805 12.1602 10.4632 11.9642 9.93457 11.668C9.54264 11.4492 9.23958 11.1462 9.02539 10.7588C8.81576 10.3714 8.71094 9.93164 8.71094 9.43945C8.71094 8.56445 9.02083 7.85579 9.64062 7.31348C10.0553 6.94889 10.6706 6.72559 11.4863 6.64355V6.05566H12.2109V6.64355C12.9264 6.71191 13.4938 6.92155 13.9131 7.27246C14.4508 7.71908 14.7744 8.33203 14.8838 9.11133L13.6123 9.30273C13.5394 8.81966 13.3867 8.45052 13.1543 8.19531C12.9264 7.93555 12.612 7.76465 12.2109 7.68262V11.2305C12.8307 11.3854 13.2409 11.5062 13.4414 11.5928C13.8242 11.7614 14.1364 11.9665 14.3779 12.208C14.6195 12.4495 14.804 12.7367 14.9316 13.0693C15.0638 13.402 15.1299 13.762 15.1299 14.1494C15.1299 15.0016 14.8587 15.7126 14.3164 16.2822C13.7741 16.8519 13.0723 17.1572 12.2109 17.1982V18.4424H11.4863ZM11.4863 7.66895C11.0078 7.74186 10.6296 7.93327 10.3516 8.24316C10.0781 8.55306 9.94141 8.91992 9.94141 9.34375C9.94141 9.76302 10.0576 10.1139 10.29 10.3965C10.527 10.679 10.9258 10.9046 11.4863 11.0732V7.66895ZM12.2109 16.1729C12.6895 16.1136 13.0837 15.9062 13.3936 15.5508C13.708 15.1953 13.8652 14.7555 13.8652 14.2314C13.8652 13.7848 13.7536 13.4271 13.5303 13.1582C13.3115 12.8848 12.8717 12.641 12.2109 12.4268V16.1729Z" fill="white"/>
    <circle cx="12" cy="12" r="11.5" stroke="white"/>
</svg>
