<svg width="24" height="24" viewBox="0 0 24 24" fill="none" xmlns="http://www.w3.org/2000/svg">
    <path fill-rule="evenodd" clip-rule="evenodd" d="M2.50513 1.5C1.95285 1.5 1.50513 1.94772 1.50513 2.5V12.5C1.50513 12.7654 1.61065 13.0199 1.79844 13.2075L10.3878 21.7869C10.6664 22.0658 10.9972 22.287 11.3613 22.4379C11.7255 22.5889 12.1159 22.6666 12.5101 22.6666C12.9044 22.6666 13.2948 22.5889 13.659 22.4379C14.023 22.287 14.3541 22.0655 14.6326 21.7867L21.8022 14.6171L21.8043 14.615C22.3631 14.0529 22.6767 13.2926 22.6767 12.5C22.6767 11.7074 22.3631 10.9471 21.8043 10.385L13.2122 1.79289C13.0247 1.60536 12.7704 1.5 12.5051 1.5H2.50513ZM20.3868 13.2041L20.3859 13.205L13.2176 20.3733C13.1248 20.4663 13.0145 20.54 12.8931 20.5903C12.7717 20.6407 12.6416 20.6666 12.5101 20.6666C12.3787 20.6666 12.2486 20.6407 12.1272 20.5903C12.0058 20.54 11.8955 20.4663 11.8026 20.3733L11.8018 20.3725L3.50513 12.0854V3.5H12.0909L20.3859 11.795L20.3868 11.7959C20.5725 11.9832 20.6767 12.2362 20.6767 12.5C20.6767 12.7638 20.5725 13.0168 20.3868 13.2041ZM7.50513 6.5C6.95285 6.5 6.50513 6.94772 6.50513 7.5C6.50513 8.05228 6.95285 8.5 7.50513 8.5H7.51513C8.06742 8.5 8.51513 8.05228 8.51513 7.5C8.51513 6.94772 8.06742 6.5 7.51513 6.5H7.50513Z" fill="white"/>
</svg>
