<svg width="20" height="22" viewBox="0 0 20 22" fill="none" xmlns="http://www.w3.org/2000/svg">
    <path fill-rule="evenodd" clip-rule="evenodd"
          d="M10 2C9.00544 2 8.05161 2.39509 7.34835 3.09835C6.64509 3.80161 6.25 4.75544 6.25 5.75V6.5H13.75V5.75C13.75 4.75544 13.3549 3.80161 12.6517 3.09835C11.9484 2.39509 10.9946 2 10 2ZM4.75 5.75V6.5H1.75C1.35217 6.5 0.970644 6.65804 0.68934 6.93934C0.408036 7.22064 0.25 7.60217 0.25 8V18.125C0.25 19.9567 1.79329 21.5 3.625 21.5H16.375C18.1846 21.5 19.75 20.0371 19.75 18.1836V8C19.75 7.60218 19.592 7.22064 19.3107 6.93934C19.0294 6.65804 18.6478 6.5 18.25 6.5H15.25V5.75C15.25 4.35761 14.6969 3.02226 13.7123 2.03769C12.7277 1.05312 11.3924 0.5 10 0.5C8.60761 0.5 7.27226 1.05312 6.28769 2.03769C5.30312 3.02226 4.75 4.35761 4.75 5.75ZM1.75 8H5.5H14.5H18.25V18.1836C18.25 19.1651 17.4004 20 16.375 20H3.625C2.62171 20 1.75 19.1283 1.75 18.125L1.75 8ZM6.25 9.5C6.25 9.08579 5.91421 8.75 5.5 8.75C5.08579 8.75 4.75 9.08579 4.75 9.5V10.25C4.75 11.6424 5.30312 12.9777 6.28769 13.9623C7.27226 14.9469 8.60761 15.5 10 15.5C11.3924 15.5 12.7277 14.9469 13.7123 13.9623C14.6969 12.9777 15.25 11.6424 15.25 10.25V9.5C15.25 9.08579 14.9142 8.75 14.5 8.75C14.0858 8.75 13.75 9.08579 13.75 9.5V10.25C13.75 11.2446 13.3549 12.1984 12.6517 12.9017C11.9484 13.6049 10.9946 14 10 14C9.00544 14 8.05161 13.6049 7.34835 12.9017C6.64509 12.1984 6.25 11.2446 6.25 10.25V9.5Z"
          fill="black"/>
</svg>
