<svg width="12" height="12" viewBox="0 0 12 12" fill="none" xmlns="http://www.w3.org/2000/svg">
    <path fill-rule="evenodd" clip-rule="evenodd"
          d="M6 0.5C2.9625 0.5 0.5 2.9625 0.5 6C0.5 9.0375 2.9625 11.5 6 11.5C9.0375 11.5 11.5 9.0375 11.5 6C11.5 2.9625 9.0375 0.5 6 0.5ZM5.446 4.4675C5.561 4.241 5.646 4.1335 5.7165 4.0775C5.7695 4.0355 5.8415 4 6 4C6.3125 4 6.5 4.235 6.5 4.489C6.5 4.628 6.473 4.697 6.399 4.785C6.2955 4.908 6.104 5.0575 5.725 5.308L5.5 5.456V6.5C5.5 6.63261 5.55268 6.75979 5.64645 6.85355C5.74021 6.94732 5.86739 7 6 7C6.13261 7 6.25979 6.94732 6.35355 6.85355C6.44732 6.75979 6.5 6.63261 6.5 6.5V5.9915C6.771 5.8045 6.9985 5.6255 7.1635 5.4295C7.402 5.1465 7.5 4.8445 7.5 4.489C7.5 3.754 6.9335 3 6 3C5.658 3 5.3555 3.088 5.096 3.2935C4.854 3.485 4.689 3.7485 4.554 4.016C4.52263 4.07473 4.50331 4.13914 4.49716 4.20544C4.49102 4.27175 4.49819 4.33861 4.51824 4.40211C4.53828 4.4656 4.57081 4.52445 4.61391 4.57521C4.65701 4.62596 4.70982 4.6676 4.76923 4.69767C4.82864 4.72774 4.89346 4.74564 4.95988 4.75032C5.0263 4.75501 5.09299 4.74637 5.15603 4.72493C5.21907 4.70349 5.27719 4.66968 5.32699 4.62547C5.37678 4.58126 5.41724 4.52756 5.446 4.4675ZM6.5 8.25C6.5 8.11739 6.44732 7.99021 6.35355 7.89645C6.25979 7.80268 6.13261 7.75 6 7.75C5.86739 7.75 5.74021 7.80268 5.64645 7.89645C5.55268 7.99021 5.5 8.11739 5.5 8.25V8.5C5.5 8.63261 5.55268 8.75979 5.64645 8.85355C5.74021 8.94732 5.86739 9 6 9C6.13261 9 6.25979 8.94732 6.35355 8.85355C6.44732 8.75979 6.5 8.63261 6.5 8.5V8.25Z"
          fill="#C4C4C4"/>
</svg>
