<svg width="87" height="110" viewBox="0 0 87 110" fill="none" xmlns="http://www.w3.org/2000/svg">
    <path d="M55.6721 80.7968C55.6721 80.5328 55.8041 80.2688 55.6721 80.1368C54.8801 77.4968 54.4841 74.8568 52.9001 72.6128C51.9761 71.2928 51.9761 70.1048 52.7681 68.7848C53.2961 67.9928 53.5601 67.0688 54.0881 66.0128C52.1081 66.0128 51.0521 64.6928 49.8641 63.5048C49.6001 63.2408 49.2041 62.9768 48.6761 62.8448C47.2241 62.4488 45.9041 62.1848 44.4521 61.9208C44.0561 61.7888 43.7921 61.6568 43.6601 61.2608C43.2641 60.2048 42.7361 59.2808 42.2081 58.2248H42.0761C42.0761 58.8848 42.0761 59.5448 42.0761 60.0728C41.5481 60.3368 41.1521 60.0728 40.8881 59.6768C39.5681 57.8288 38.2481 55.9808 36.9281 54.1328C36.7961 53.8688 36.6641 53.4728 36.6641 53.2088C36.6641 51.7568 36.6641 50.4368 36.6641 48.9848C36.6641 48.7208 36.5321 48.3248 36.4001 48.0608C35.4761 46.6088 34.5521 45.1568 33.7601 43.5728C33.3641 43.0448 33.1001 42.7808 32.4401 42.9128C30.1961 43.3088 27.9521 43.8368 25.5761 43.8368C24.2561 43.8368 23.3321 43.3088 22.4081 42.5168C23.2001 41.9888 23.8601 41.3288 24.5201 40.8008C23.8601 40.8008 23.2001 40.9328 22.6721 41.1968C22.5401 41.1968 22.2761 41.4608 22.1441 41.5928C20.2961 44.7608 19.1081 48.0608 18.4481 51.6248C18.1841 53.2088 18.0521 54.6608 17.7881 56.2448C17.7881 57.4328 17.7881 58.6208 17.7881 59.6768C17.9201 60.9968 18.0521 62.3168 18.3161 63.5048C20.2961 73.9328 25.9721 81.8528 35.3441 86.8688C39.3041 89.1128 43.6601 90.3008 48.2801 90.5648C48.4121 90.5648 48.6761 90.6968 48.8081 90.6968C49.9961 90.6968 51.1841 90.6968 52.3721 90.6968C53.1641 90.5648 53.9561 90.4328 54.8801 90.4328C54.8801 90.0368 54.8801 89.7728 54.7481 89.5088C54.6161 88.0568 54.3521 86.6048 54.8801 85.0208C55.0121 83.5688 55.2761 82.2488 55.6721 80.7968Z" fill="#69AA44"/>
    <path d="M65.44 39.2154C65.044 38.8194 64.78 38.4234 64.516 37.8954C63.988 36.0474 63.196 34.3314 61.612 33.0114C60.424 31.9554 58.972 32.0874 57.652 31.6914C57.388 32.6154 57.52 33.2754 58.18 33.8034C58.972 34.4634 59.632 35.1234 60.292 35.7834C60.82 36.4434 61.48 37.1034 62.008 37.6314C60.952 38.5554 59.896 38.6874 58.84 38.0274C58.576 37.8954 58.312 37.7634 58.048 37.6314C57.256 37.4994 56.992 36.9714 57.124 36.1794C57.124 35.9154 57.124 35.5194 56.992 35.5194C56.2 35.1234 55.408 34.8594 54.484 34.4634C54.22 35.5194 53.956 36.4434 53.824 37.3674C53.692 38.1594 53.428 38.4234 52.636 38.5554C52.108 38.5554 51.316 38.6874 51.184 38.9514C50.92 39.3474 51.184 40.1394 51.184 40.6674C51.184 40.7994 51.316 41.0634 51.448 41.1954C52.504 41.4594 53.56 41.5914 54.616 41.8554C54.88 40.6674 55.012 39.6114 55.276 38.4234C56.332 38.5554 57.388 38.6874 58.312 39.0834C59.236 39.4794 60.028 39.8754 61.084 39.7434C61.48 39.7434 61.744 39.8754 62.008 40.2714C62.668 41.9874 63.724 43.4394 65.176 44.6274C65.704 45.0234 66.1 45.5514 66.496 45.9474C67.288 46.7394 67.288 47.1354 66.76 48.1914C64.78 47.3994 62.932 48.0594 61.084 48.9834C59.104 49.9074 57.52 51.0954 56.2 52.9434C55.276 54.2634 54.088 55.3194 53.956 57.0354C53.956 57.1674 53.692 57.2994 53.692 57.2994C53.164 57.2994 52.636 57.2994 52.108 57.0354C51.448 56.7714 50.92 56.5074 50.26 56.2434C50.128 56.1114 49.864 56.1114 49.732 56.2434C48.94 56.6394 48.148 56.9034 47.356 57.2994C47.62 58.2234 47.752 59.0154 48.016 59.8074L48.148 59.9394C48.676 58.4874 49.864 58.4874 51.052 58.6194C51.052 59.4114 50.92 60.2034 50.92 60.9954C51.976 61.1274 52.9 61.5234 53.428 62.4474C53.824 63.1074 54.352 63.2394 55.144 62.9754C55.804 62.7114 56.464 62.4474 57.124 62.5794C58.708 62.8434 60.16 63.2394 61.744 63.5034C62.668 63.6354 63.592 63.8994 64.384 64.0314C64.78 64.1634 65.176 64.2954 65.308 64.5594C66.892 66.6714 68.872 68.2554 71.248 69.4434C71.908 69.7074 72.568 70.2354 73.096 70.4994C73.228 70.6314 73.36 70.7634 73.624 70.7634C72.436 73.0074 71.248 75.2514 70.06 77.4954C69.928 77.6274 69.796 77.7594 69.532 77.8914C68.476 78.4194 67.552 78.8154 66.496 79.3434C66.232 79.4754 65.968 79.7394 65.836 80.0034C65.44 80.9274 65.176 81.9834 64.78 82.9074C64.648 83.3034 64.384 83.5674 64.12 83.8314C62.8 84.7554 61.348 85.8114 59.896 86.6034C58.708 87.2634 58.708 88.3194 58.444 89.3754C58.576 89.3754 58.576 89.3754 58.708 89.3754C58.84 89.3754 58.84 89.3754 58.972 89.2434C64.78 87.6594 69.928 84.7554 74.152 80.5314C78.904 75.6474 81.94 69.8394 83.128 63.1074C83.392 61.7874 83.524 60.3354 83.656 58.8834C83.656 57.9594 83.656 56.9034 83.656 55.9794C83.656 55.7154 83.524 55.5834 83.524 55.3194C83.128 49.9074 81.544 44.7594 78.64 40.1394C78.112 39.2154 78.112 39.2154 77.056 39.4794C76.924 39.4794 76.792 39.4794 76.792 39.4794C75.34 39.6114 73.888 39.7434 72.436 39.8754C72.04 39.8754 71.644 40.1394 71.512 40.5354C71.116 41.1954 70.72 41.7234 70.324 42.5154C69.796 42.1194 69.136 41.8554 68.608 41.4594C67.42 40.9314 66.496 40.0074 65.44 39.2154Z" fill="#69AA44"/>
    <path d="M50.6561 21.9248C56.4641 8.19681 65.5721 8.32881 65.5721 8.32881C55.5401 11.2328 51.9761 23.5088 51.9761 23.5088C65.3081 25.7528 69.4001 6.61281 69.4001 6.61281C69.4001 6.61281 59.3681 5.02881 53.6921 8.72481C48.0161 12.4208 50.6561 21.9248 50.6561 21.9248Z" fill="#69AA44"/>
    <path d="M34.9479 20.3403C39.8319 24.6963 48.6759 22.7163 48.6759 22.7163C49.0719 22.9803 49.5999 23.9043 49.9959 24.9603C49.4679 24.9603 48.9399 24.9603 48.4119 24.9603C47.3559 25.0923 46.1679 25.2243 45.1119 25.3563C39.0399 26.4123 33.4959 28.9203 28.8759 33.0123C27.5559 34.2003 26.3679 35.3883 25.1799 36.5763L25.3119 36.7083C25.5759 36.7083 25.7079 36.5763 25.9719 36.5763C28.2159 35.9163 30.5919 35.2563 32.9679 34.9923C34.6839 34.8603 36.3999 34.4643 37.8519 33.4083C38.2479 33.1443 38.6439 33.1443 39.0399 33.2763C39.9639 33.5403 40.7559 33.9363 41.6799 33.9363C42.9999 33.9363 44.4519 33.8043 45.9039 33.8043C46.1679 33.8043 46.4319 33.5403 46.5639 33.4083C46.9599 32.8803 47.3559 32.2203 47.7519 31.5603C47.8839 31.4283 48.1479 31.2963 48.4119 31.2963C49.2039 31.2963 50.1279 31.5603 50.9199 31.5603C52.5039 31.4283 54.2199 31.2963 55.8039 31.0323C56.0679 31.0323 56.3319 30.9003 56.4639 30.6363C57.1239 30.1083 57.6519 29.4483 58.3119 28.7883C59.4999 27.7323 60.6879 27.4683 62.2719 27.8643C62.9319 27.9963 63.5919 27.9963 64.2519 27.9963C64.2519 27.8643 64.2519 27.8643 64.2519 27.7323C61.6119 26.5443 58.9719 25.6203 56.1999 25.2243C55.0119 24.9603 53.8239 24.8283 52.6359 24.6963C52.1079 24.6963 51.5799 24.6963 51.1839 24.6963C43.1319 6.21628 24.5199 3.84028 24.5199 3.84028C37.1919 2.52028 48.9399 16.6443 48.9399 16.6443C48.4119 14.0043 50.2599 10.3083 50.2599 10.3083C37.8519 -6.45572 20.2959 4.10428 20.2959 4.10428C25.8399 6.87628 30.0639 15.9843 34.9479 20.3403ZM42.0759 31.4283C41.9439 31.4283 41.8119 31.4283 41.6799 31.2963C41.1519 30.9003 40.4919 30.6363 39.8319 30.2403C40.6239 29.5803 41.2839 29.0523 42.0759 28.5243C42.0759 28.5243 42.0759 28.5243 42.2079 28.5243C43.1319 29.0523 44.0559 29.0523 44.9799 28.6563C45.3759 28.5243 45.6399 28.5243 45.7719 28.9203C46.0359 29.3163 46.2999 29.7123 46.5639 30.2403C44.9799 30.7683 43.5279 31.1643 42.0759 31.4283ZM55.0119 26.5443C55.1439 26.5443 55.4079 26.5443 55.4079 26.5443C56.0679 26.9403 56.5959 27.2043 57.2559 27.6003C56.1999 28.3923 55.2759 29.3163 54.2199 29.8443C53.4279 30.2403 52.3719 30.2403 51.3159 30.2403C50.9199 30.2403 50.3919 29.7123 49.8639 29.4483C50.5239 29.0523 51.0519 28.7883 51.5799 28.3923C51.7119 28.3923 51.8439 28.2603 51.8439 28.2603C53.0319 27.6003 53.9559 27.0723 55.0119 26.5443Z" fill="#69AA44"/>
    <path d="M80.7521 37.7647C80.2241 37.1047 79.1681 37.3687 79.1681 38.1607C83.5241 44.3647 85.7681 52.1527 85.1081 60.4687C83.9201 78.0247 69.4001 91.8847 51.8441 92.6767C32.0441 93.4687 15.6761 77.4967 15.6761 57.8287C15.6761 50.5687 17.5241 44.3647 21.3521 38.8207C21.3521 38.0287 20.2961 37.6327 19.7681 38.4247C15.8081 44.6287 13.6961 52.0207 14.2241 59.9407C15.1481 78.0247 29.6681 92.8087 47.7521 94.1287C69.0041 95.7127 86.9561 78.8167 86.9561 57.8287C86.8241 50.4367 84.5801 43.5727 80.7521 37.7647Z" fill="#69AA44"/>
    <path d="M7.49219 83.3036C7.22819 83.3036 7.09619 83.1716 7.09619 82.9076V75.9116C7.09619 75.6476 7.22819 75.5156 7.49219 75.5156C7.75619 75.5156 7.88819 75.6476 7.88819 75.9116V82.9076C8.02019 83.0396 7.75619 83.3036 7.49219 83.3036Z" fill="#69AA44"/>
    <path d="M7.49219 93.6005C7.22819 93.6005 7.09619 93.4685 7.09619 93.2045V86.2085C7.09619 85.9445 7.22819 85.8125 7.49219 85.8125C7.75619 85.8125 7.88819 85.9445 7.88819 86.2085V93.2045C8.02019 93.4685 7.75619 93.6005 7.49219 93.6005Z" fill="#69AA44"/>
    <path d="M0.496094 84.6245C0.496094 84.3605 0.628095 84.2285 0.760095 84.2285H5.6441C5.7761 84.2285 5.90809 84.3605 5.90809 84.6245C5.90809 84.8885 5.7761 85.0205 5.6441 85.0205H0.760095C0.628095 85.0205 0.496094 84.7565 0.496094 84.6245Z" fill="#69AA44"/>
    <path d="M9.20801 84.6245C9.20801 84.3605 9.34001 84.2285 9.47201 84.2285H14.356C14.488 84.2285 14.62 84.3605 14.62 84.6245C14.62 84.8885 14.488 85.0205 14.356 85.0205H9.47201C9.34001 85.0205 9.20801 84.7565 9.20801 84.6245Z" fill="#69AA44"/>
    <path d="M74.02 20.7353C73.756 20.7353 73.624 20.6033 73.624 20.3393V13.3433C73.624 13.0793 73.756 12.9473 74.02 12.9473C74.284 12.9473 74.416 13.0793 74.416 13.3433V20.3393C74.416 20.6033 74.152 20.7353 74.02 20.7353Z" fill="#69AA44"/>
    <path d="M74.02 31.163C73.756 31.163 73.624 31.031 73.624 30.767V23.771C73.624 23.507 73.756 23.375 74.02 23.375C74.284 23.375 74.416 23.507 74.416 23.771V30.767C74.416 31.031 74.152 31.163 74.02 31.163Z" fill="#69AA44"/>
    <path d="M66.8921 22.0562C66.8921 21.7922 67.0241 21.6602 67.1561 21.6602H72.0401C72.1721 21.6602 72.3041 21.7922 72.3041 22.0562C72.3041 22.3202 72.1721 22.4522 72.0401 22.4522H67.1561C67.0241 22.5842 66.8921 22.3202 66.8921 22.0562Z" fill="#69AA44"/>
    <path d="M75.7363 22.0562C75.7363 21.7922 75.8683 21.6602 76.0003 21.6602H80.8843C81.0163 21.6602 81.1483 21.7922 81.1483 22.0562C81.1483 22.3202 81.0163 22.4522 80.8843 22.4522H76.0003C75.8683 22.5842 75.7363 22.3202 75.7363 22.0562Z" fill="#69AA44"/>
    <path d="M21.8802 21.7927C21.7482 21.7927 21.6162 21.6607 21.6162 21.5287V17.5687C21.6162 17.4367 21.7482 17.3047 21.8802 17.3047C22.0122 17.3047 22.1442 17.4367 22.1442 17.5687V21.5287C22.1442 21.6607 22.0122 21.7927 21.8802 21.7927Z" fill="#69AA44"/>
    <path d="M21.8802 27.7321C21.7482 27.7321 21.6162 27.6001 21.6162 27.4681V23.5081C21.6162 23.3761 21.7482 23.2441 21.8802 23.2441C22.0122 23.2441 22.1442 23.3761 22.1442 23.5081V27.4681C22.1442 27.6001 22.0122 27.7321 21.8802 27.7321Z" fill="#69AA44"/>
    <path d="M17.7881 22.5843C17.7881 22.4523 17.9201 22.3203 17.9201 22.3203H20.6921C20.8241 22.3203 20.8241 22.4523 20.8241 22.5843C20.8241 22.7163 20.6921 22.8483 20.6921 22.8483H17.9201C17.9201 22.8483 17.7881 22.7163 17.7881 22.5843Z" fill="#69AA44"/>
    <path d="M22.8042 22.5843C22.8042 22.4523 22.9362 22.3203 22.9362 22.3203H25.8402C25.9722 22.3203 25.9722 22.4523 25.9722 22.5843C25.9722 22.7163 25.8402 22.8483 25.8402 22.8483H23.0682C22.9362 22.8483 22.8042 22.7163 22.8042 22.5843Z" fill="#69AA44"/>
    <path d="M81.1483 103.5C81.0163 103.5 80.8843 103.368 80.8843 103.236V99.2757C80.8843 99.1437 81.0163 99.0117 81.1483 99.0117C81.2803 99.0117 81.4123 99.1437 81.4123 99.2757V103.236C81.4123 103.368 81.2803 103.5 81.1483 103.5Z" fill="#69AA44"/>
    <path d="M81.1483 109.308C81.0163 109.308 80.8843 109.176 80.8843 109.044V105.084C80.8843 104.952 81.0163 104.82 81.1483 104.82C81.2803 104.82 81.4123 104.952 81.4123 105.084V109.044C81.4123 109.308 81.2803 109.308 81.1483 109.308Z" fill="#69AA44"/>
    <path d="M77.0562 104.16C77.0562 104.028 77.1882 103.896 77.1882 103.896H79.9601C80.0921 103.896 80.0921 104.028 80.0921 104.16C80.0921 104.292 79.9601 104.424 79.9601 104.424H77.1882C77.1882 104.424 77.0562 104.292 77.0562 104.16Z" fill="#69AA44"/>
    <path d="M82.0723 104.16C82.0723 104.028 82.2043 103.896 82.2043 103.896H84.9763C85.1083 103.896 85.1083 104.028 85.1083 104.16C85.1083 104.292 84.9763 104.424 84.9763 104.424H82.2043C82.2043 104.424 82.0723 104.292 82.0723 104.16Z" fill="#69AA44"/>
</svg>
