<svg width="24" height="21" viewBox="0 0 24 21" fill="none" xmlns="http://www.w3.org/2000/svg">
    <path fill-rule="evenodd" clip-rule="evenodd"
          d="M7.04973 0C5.32539 0 3.67167 0.684992 2.45238 1.90428C1.23309 3.12358 0.548096 4.77729 0.548096 6.50163C0.548096 8.22597 1.23309 9.87969 2.45238 11.099L11.2928 19.9395C11.3417 19.9883 11.3943 20.031 11.4497 20.0676C11.8379 20.3239 12.3654 20.2812 12.7071 19.9395L21.5476 11.099C22.7669 9.87969 23.4519 8.22597 23.4519 6.50163C23.4519 4.77729 22.7669 3.12358 21.5476 1.90428C20.3283 0.684992 18.6746 0 16.9503 0C15.2259 0 13.5722 0.684992 12.3529 1.90428L12 2.2572L11.6471 1.90428C10.4278 0.684992 8.77407 0 7.04973 0ZM12.7071 4.37863C12.3654 4.72036 11.8379 4.76307 11.4497 4.50678C11.3943 4.47016 11.3417 4.42745 11.2928 4.37863L10.2328 3.31857C9.38859 2.47437 8.24361 2.00011 7.04973 2.00011C5.85585 2.00011 4.71087 2.47437 3.86667 3.31857C3.02247 4.16277 2.5482 5.30775 2.5482 6.50163C2.5482 7.69551 3.02247 8.8405 3.86667 9.6847L12 17.818L20.1333 9.6847C20.9775 8.8405 21.4518 7.69551 21.4518 6.50163C21.4518 5.30775 20.9775 4.16277 20.1333 3.31857C19.2891 2.47437 18.1441 2.00011 16.9503 2.00011C15.7564 2.00011 14.6114 2.47437 13.7672 3.31857L12.7071 4.37863Z"
          fill="#0F8571"/>
</svg>
