<svg width="24" height="21" viewBox="0 0 24 21" fill="none" xmlns="http://www.w3.org/2000/svg">
<path fill-rule="evenodd" clip-rule="evenodd" d="M7.04949 0C5.32514 0 3.67143 0.684992 2.45214 1.90428C1.23284 3.12358 0.547852 4.77729 0.547852 6.50163C0.547852 8.22597 1.23284 9.87969 2.45214 11.099L11.2926 19.9395C11.3414 19.9883 11.394 20.031 11.4495 20.0676C11.8377 20.3239 12.3652 20.2812 12.7069 19.9395L21.5474 11.099C22.7667 9.87969 23.4517 8.22597 23.4517 6.50163C23.4517 4.77729 22.7667 3.12358 21.5474 1.90428C20.3281 0.684992 18.6744 0 16.95 0C15.2257 0 13.572 0.684992 12.3527 1.90428L11.9998 2.2572L11.6468 1.90428C10.4275 0.684992 8.77383 0 7.04949 0ZM12.7069 4.37863C12.3652 4.72036 11.8377 4.76307 11.4495 4.50678C11.394 4.47016 11.3414 4.42745 11.2926 4.37863L10.2325 3.31857C9.38835 2.47437 8.24337 2.00011 7.04949 2.00011C5.85561 2.00011 4.71062 2.47437 3.86642 3.31857C3.02222 4.16277 2.54796 5.30775 2.54796 6.50163C2.54796 7.69551 3.02222 8.8405 3.86642 9.6847L11.9998 17.818L20.1331 9.6847C20.9773 8.8405 21.4515 7.69551 21.4515 6.50163C21.4515 5.30775 20.9773 4.16277 20.1331 3.31857C19.2889 2.47437 18.1439 2.00011 16.95 2.00011C15.7561 2.00011 14.6112 2.47437 13.767 3.31857L12.7069 4.37863Z" fill="#0F8571"/>
</svg>
