<svg width="11" height="12" viewBox="0 0 11 12" fill="none" xmlns="http://www.w3.org/2000/svg">
<path fill-rule="evenodd" clip-rule="evenodd" d="M5.5 0.5C2.4625 0.5 0 2.9625 0 6C0 9.0375 2.4625 11.5 5.5 11.5C8.5375 11.5 11 9.0375 11 6C11 2.9625 8.5375 0.5 5.5 0.5ZM4.946 4.4675C5.061 4.241 5.146 4.1335 5.2165 4.0775C5.2695 4.0355 5.3415 4 5.5 4C5.8125 4 6 4.235 6 4.489C6 4.628 5.973 4.697 5.899 4.785C5.7955 4.908 5.604 5.0575 5.225 5.308L5 5.456V6.5C5 6.63261 5.05268 6.75979 5.14645 6.85355C5.24021 6.94732 5.36739 7 5.5 7C5.63261 7 5.75979 6.94732 5.85355 6.85355C5.94732 6.75979 6 6.63261 6 6.5V5.9915C6.271 5.8045 6.4985 5.6255 6.6635 5.4295C6.902 5.1465 7 4.8445 7 4.489C7 3.754 6.4335 3 5.5 3C5.158 3 4.8555 3.088 4.596 3.2935C4.354 3.485 4.189 3.7485 4.054 4.016C4.02263 4.07473 4.00331 4.13914 3.99716 4.20544C3.99102 4.27175 3.99819 4.33861 4.01824 4.40211C4.03828 4.4656 4.07081 4.52445 4.11391 4.57521C4.15701 4.62596 4.20982 4.6676 4.26923 4.69767C4.32864 4.72774 4.39346 4.74564 4.45988 4.75032C4.5263 4.75501 4.59299 4.74637 4.65603 4.72493C4.71907 4.70349 4.77719 4.66968 4.82699 4.62547C4.87678 4.58126 4.91724 4.52756 4.946 4.4675ZM6 8.25C6 8.11739 5.94732 7.99021 5.85355 7.89645C5.75979 7.80268 5.63261 7.75 5.5 7.75C5.36739 7.75 5.24021 7.80268 5.14645 7.89645C5.05268 7.99021 5 8.11739 5 8.25V8.5C5 8.63261 5.05268 8.75979 5.14645 8.85355C5.24021 8.94732 5.36739 9 5.5 9C5.63261 9 5.75979 8.94732 5.85355 8.85355C5.94732 8.75979 6 8.63261 6 8.5V8.25Z" fill="#CBCBD4"/>
</svg>
