<svg width="16" height="16" viewBox="0 0 16 16" fill="none" xmlns="http://www.w3.org/2000/svg">
    <path d="M7.99935 7.33366C8.36754 7.33366 8.66602 7.63213 8.66602 8.00033V10.667C8.66602 11.0352 8.36754 11.3337 7.99935 11.3337C7.63116 11.3337 7.33268 11.0352 7.33268 10.667V8.00033C7.33268 7.63213 7.63116 7.33366 7.99935 7.33366Z" fill="#DE411A"/>
    <path d="M7.99935 4.66699C7.63116 4.66699 7.33268 4.96547 7.33268 5.33366C7.33268 5.70185 7.63116 6.00033 7.99935 6.00033H8.00602C8.37421 6.00033 8.67268 5.70185 8.67268 5.33366C8.67268 4.96547 8.37421 4.66699 8.00602 4.66699H7.99935Z" fill="#DE411A"/>
    <path fill-rule="evenodd" clip-rule="evenodd" d="M0.666016 8.00033C0.666016 3.95024 3.94926 0.666992 7.99935 0.666992C12.0494 0.666992 15.3327 3.95024 15.3327 8.00033C15.3327 12.0504 12.0494 15.3337 7.99935 15.3337C3.94926 15.3337 0.666016 12.0504 0.666016 8.00033ZM7.99935 2.00033C4.68564 2.00033 1.99935 4.68662 1.99935 8.00033C1.99935 11.314 4.68564 14.0003 7.99935 14.0003C11.3131 14.0003 13.9993 11.314 13.9993 8.00033C13.9993 4.68662 11.3131 2.00033 7.99935 2.00033Z" fill="#DE411A"/>
</svg>
