<svg width="24" height="15" viewBox="0 0 24 15" fill="none" xmlns="http://www.w3.org/2000/svg">
<path d="M23.7758 8.39897L21.8543 4.17237C21.695 3.82314 21.4387 3.527 21.1159 3.31917C20.7932 3.11134 20.4175 3.00056 20.0336 3.00002H16.4985V1.50001C16.4981 1.10231 16.3399 0.721034 16.0586 0.439822C15.7773 0.15861 15.396 0.000434265 14.9982 0H2.49569C2.09792 0.000434265 1.71656 0.15861 1.4353 0.439822C1.15403 0.721034 0.995823 1.10231 0.995389 1.50001V7.50004C0.994749 7.56611 1.00721 7.63165 1.03206 7.69287C1.0569 7.7541 1.09364 7.80979 1.14014 7.85673C1.18664 7.90368 1.24199 7.94094 1.30298 7.96638C1.36397 7.99181 1.4294 8.0049 1.49548 8.0049C1.56156 8.0049 1.62699 7.99181 1.68798 7.96638C1.74898 7.94094 1.80432 7.90368 1.85082 7.85673C1.89733 7.80979 1.93406 7.7541 1.9589 7.69287C1.98375 7.63165 1.99621 7.56611 1.99557 7.50004V1.50001C1.99572 1.36744 2.04846 1.24035 2.14222 1.14661C2.23598 1.05287 2.3631 1.00014 2.49569 0.99999H14.9982C15.1308 1.00014 15.2579 1.05287 15.3517 1.14661C15.4454 1.24035 15.4982 1.36744 15.4983 1.50001V9.50007C15.4981 9.63262 15.4454 9.75969 15.3516 9.85341C15.2579 9.94714 15.1308 9.99987 14.9982 10H8.997C8.86521 10.0013 8.73925 10.0546 8.6465 10.1482C8.55376 10.2418 8.50173 10.3683 8.50173 10.5C8.50173 10.6318 8.55376 10.7583 8.6465 10.8519C8.73925 10.9455 8.86521 10.9988 8.997 11H14.9982C15.396 10.9996 15.7773 10.8414 16.0586 10.5602C16.3399 10.279 16.4981 9.89772 16.4985 9.50002V4.00001H20.0336C20.2256 4.00027 20.4134 4.05565 20.5749 4.15957C20.7363 4.26348 20.8645 4.41155 20.9442 4.58618L21.1323 5H18.9991C18.7339 5.00026 18.4796 5.1057 18.2921 5.29319C18.1045 5.48067 17.9991 5.73488 17.9988 6.00003V8.00006C17.9991 8.26519 18.1045 8.5194 18.292 8.70687C18.4795 8.89435 18.7338 8.99979 18.999 9.00005H22.9279C22.9733 9.14005 22.9976 9.28603 23 9.43318V11.5001C22.9998 11.6327 22.947 11.7598 22.8532 11.8535C22.7595 11.9472 22.6323 11.9999 22.4997 12.0001H20.9489C20.8336 11.4355 20.5268 10.9281 20.0803 10.5636C19.6339 10.1992 19.0752 10.0002 18.4989 10.0002C17.9226 10.0002 17.3639 10.1992 16.9175 10.5636C16.4711 10.9281 16.1643 11.4355 16.049 12.0001H7.94628C7.83099 11.4355 7.52417 10.9281 7.07774 10.5636C6.63131 10.1992 6.07267 10.0002 5.49633 10.0002C4.92 10.0002 4.36136 10.1992 3.91493 10.5636C3.4685 10.9281 3.16168 11.4355 3.04639 12.0001H2.49569C2.3631 11.9999 2.236 11.9472 2.14225 11.8534C2.04849 11.7597 1.99575 11.6326 1.99557 11.5001V11.0001C2.12737 10.9988 2.25333 10.9456 2.34607 10.8519C2.43882 10.7583 2.49085 10.6319 2.49085 10.5001C2.49085 10.3683 2.43882 10.2419 2.34607 10.1482C2.25333 10.0546 2.12737 10.0014 1.99557 10.0001H0.495273C0.363479 10.0014 0.237517 10.0546 0.144773 10.1482C0.0520281 10.2419 0 10.3683 0 10.5001C0 10.6319 0.0520281 10.7583 0.144773 10.8519C0.237517 10.9456 0.363479 10.9988 0.495273 11.0001H0.995389V11.5001C0.995823 11.8978 1.15403 12.2791 1.4353 12.5603C1.71656 12.8415 2.09792 12.9997 2.49569 13.0001H3.04635C3.16164 13.5647 3.46845 14.0721 3.91488 14.4365C4.36132 14.801 4.91996 15 5.49629 15C6.07262 15 6.63126 14.801 7.07769 14.4365C7.52412 14.0721 7.83094 13.5647 7.94623 13.0001H16.0489C16.1642 13.5647 16.471 14.0721 16.9175 14.4365C17.3639 14.801 17.9225 15 18.4989 15C19.0752 15 19.6338 14.801 20.0803 14.4365C20.5267 14.0721 20.8335 13.5647 20.9488 13.0001H22.4997C22.8975 12.9997 23.2788 12.8415 23.5601 12.5603C23.8414 12.2791 23.9996 11.8978 24 11.5001V9.43318C24.0006 9.07633 23.9241 8.72357 23.7758 8.39897ZM5.49629 14.0001C5.19956 14.0001 4.90949 13.9121 4.66277 13.7473C4.41604 13.5825 4.22375 13.3482 4.11019 13.0741C3.99664 12.8 3.96693 12.4984 4.02482 12.2074C4.08271 11.9165 4.22559 11.6492 4.43542 11.4394C4.64524 11.2296 4.91256 11.0868 5.20359 11.0289C5.49462 10.971 5.79628 11.0007 6.07043 11.1143C6.34457 11.2278 6.57889 11.4201 6.74374 11.6667C6.9086 11.9134 6.99659 12.2034 6.99659 12.5001C6.99615 12.8978 6.83795 13.2791 6.55668 13.5603C6.27541 13.8415 5.89406 13.9997 5.49629 14.0001ZM18.4989 14.0001C18.2021 14.0001 17.9121 13.9121 17.6653 13.7473C17.4186 13.5825 17.2263 13.3482 17.1128 13.0741C16.9992 12.8 16.9695 12.4984 17.0274 12.2074C17.0853 11.9165 17.2282 11.6492 17.438 11.4394C17.6478 11.2296 17.9151 11.0868 18.2062 11.0289C18.4972 10.971 18.7989 11.0007 19.073 11.1143C19.3472 11.2278 19.5815 11.4201 19.7463 11.6667C19.9112 11.9134 19.9992 12.2034 19.9992 12.5001C19.9987 12.8978 19.8405 13.279 19.5593 13.5603C19.278 13.8415 18.8967 13.9996 18.4989 14.0001H18.4989ZM18.999 6.00003H21.5867L22.496 8.00006H18.999V6.00003Z" fill="black"/>
<path d="M8.63243 4.75001C8.63202 4.41861 8.50016 4.1009 8.26578 3.86656C8.0314 3.63223 7.71363 3.5004 7.38216 3.49999H6.38198C6.24934 3.49999 6.12213 3.55267 6.02834 3.64644C5.93456 3.74021 5.88186 3.86739 5.88186 4.00001V7.00002C5.88122 7.06609 5.89369 7.13163 5.91853 7.19285C5.94338 7.25408 5.98011 7.30977 6.02661 7.35672C6.07311 7.40366 6.12846 7.44093 6.18945 7.46636C6.25044 7.49179 6.31587 7.50488 6.38196 7.50488C6.44804 7.50488 6.51347 7.49179 6.57446 7.46636C6.63545 7.44093 6.6908 7.40366 6.7373 7.35672C6.7838 7.30977 6.82054 7.25408 6.84538 7.19285C6.87023 7.13163 6.88269 7.06609 6.88205 7.00002V6.40213L7.69362 7.32928C7.73663 7.37945 7.78917 7.4206 7.8482 7.45034C7.90722 7.48009 7.97155 7.49784 8.03748 7.50256C8.10341 7.50729 8.16962 7.4989 8.23229 7.47788C8.29495 7.45687 8.35283 7.42364 8.40256 7.38011C8.4523 7.33659 8.49291 7.28364 8.52206 7.22433C8.5512 7.16501 8.56828 7.10051 8.57234 7.03455C8.57638 6.96859 8.56731 6.90248 8.54565 6.84005C8.52398 6.77762 8.49015 6.7201 8.44611 6.67082L7.79728 5.92925C8.04128 5.84304 8.25257 5.68337 8.40212 5.47221C8.55167 5.26104 8.63213 5.00875 8.63243 4.75001ZM7.38216 5H6.8821V4.50003H7.38221C7.44853 4.50003 7.51213 4.52637 7.55903 4.57325C7.60592 4.62014 7.63227 4.68373 7.63227 4.75003C7.63227 4.81634 7.60592 4.87993 7.55903 4.92682C7.51213 4.9737 7.44853 5.00004 7.38221 5.00004L7.38216 5Z" fill="black"/>
<path d="M4.99622 4.50003C5.12801 4.49875 5.25397 4.44551 5.34672 4.35188C5.43946 4.25825 5.49149 4.1318 5.49149 4.00003C5.49149 3.86826 5.43946 3.74181 5.34672 3.64818C5.25397 3.55455 5.12801 3.50131 4.99622 3.50004H3.49592C3.36329 3.50004 3.23609 3.55271 3.1423 3.64647C3.04851 3.74023 2.99582 3.8674 2.9958 4.00001V7.00002C2.99516 7.06609 3.00763 7.13163 3.03247 7.19285C3.05732 7.25408 3.09405 7.30977 3.14055 7.35672C3.18705 7.40366 3.2424 7.44093 3.30339 7.46636C3.36438 7.49179 3.42981 7.50488 3.4959 7.50488C3.56198 7.50488 3.62741 7.49179 3.6884 7.46636C3.74939 7.44093 3.80474 7.40366 3.85124 7.35672C3.89774 7.30977 3.93447 7.25408 3.95932 7.19285C3.98416 7.13163 3.99663 7.06609 3.99599 7.00002V6.00003H4.74614C4.81222 6.00067 4.87777 5.98821 4.93901 5.96337C5.00024 5.93853 5.05594 5.90181 5.1029 5.85531C5.14985 5.80882 5.18713 5.75349 5.21256 5.69251C5.238 5.63153 5.2511 5.56611 5.2511 5.50004C5.2511 5.43397 5.238 5.36855 5.21256 5.30757C5.18713 5.24659 5.14985 5.19126 5.1029 5.14477C5.05594 5.09827 5.00024 5.06155 4.93901 5.03671C4.87777 5.01187 4.81222 4.9994 4.74614 5.00004H3.99599V4.50003H4.99622Z" fill="black"/>
<path d="M13.998 4.50003C14.1298 4.49875 14.2558 4.44551 14.3485 4.35188C14.4413 4.25825 14.4933 4.1318 14.4933 4.00003C14.4933 3.86826 14.4413 3.74181 14.3485 3.64818C14.2558 3.55455 14.1298 3.50131 13.998 3.50004H12.4977C12.3651 3.50004 12.2379 3.55271 12.1441 3.64647C12.0503 3.74023 11.9976 3.8674 11.9976 4.00001V7.00002C11.9976 7.13264 12.0503 7.25982 12.1441 7.35359C12.2379 7.44736 12.3651 7.50004 12.4977 7.50004H13.998C14.1298 7.49877 14.2558 7.44553 14.3485 7.3519C14.4413 7.25827 14.4933 7.13182 14.4933 7.00005C14.4933 6.86827 14.4413 6.74183 14.3485 6.6482C14.2558 6.55457 14.1298 6.50133 13.998 6.50005H12.9978V6.00003H13.7367C13.8028 6.00067 13.8683 5.98821 13.9296 5.96337C13.9908 5.93853 14.0465 5.90181 14.0934 5.85531C14.1404 5.80882 14.1777 5.75349 14.2031 5.69251C14.2285 5.63153 14.2416 5.56611 14.2416 5.50004C14.2416 5.43397 14.2285 5.36855 14.2031 5.30757C14.1777 5.24659 14.1404 5.19126 14.0934 5.14477C14.0465 5.09827 13.9908 5.06155 13.9296 5.03671C13.8683 5.01187 13.8028 4.9994 13.7367 5.00004H12.9978V4.50003H13.998Z" fill="black"/>
<path d="M11.1224 4.50003C11.1885 4.50067 11.254 4.48821 11.3153 4.46337C11.3765 4.43852 11.4322 4.4018 11.4792 4.3553C11.5261 4.30881 11.5634 4.25348 11.5888 4.1925C11.6143 4.13152 11.6274 4.0661 11.6274 4.00003C11.6274 3.93396 11.6143 3.86854 11.5888 3.80756C11.5634 3.74658 11.5261 3.69125 11.4792 3.64476C11.4322 3.59826 11.3765 3.56154 11.3153 3.5367C11.254 3.51186 11.1885 3.4994 11.1224 3.50004H9.62211C9.48947 3.50004 9.36227 3.55272 9.26848 3.64649C9.17469 3.74026 9.122 3.86744 9.122 4.00005V7.00007C9.12201 7.13268 9.1747 7.25985 9.26849 7.35361C9.36228 7.44737 9.48948 7.50004 9.62211 7.50004H11.1224C11.1885 7.50068 11.254 7.48822 11.3153 7.46338C11.3765 7.43854 11.4322 7.40181 11.4792 7.35532C11.5261 7.30883 11.5634 7.25349 11.5888 7.19251C11.6143 7.13153 11.6274 7.06612 11.6274 7.00005C11.6274 6.93398 11.6143 6.86856 11.5888 6.80758C11.5634 6.7466 11.5261 6.69127 11.4792 6.64477C11.4322 6.59828 11.3765 6.56155 11.3153 6.53671C11.254 6.51187 11.1885 6.49941 11.1224 6.50005H10.1222V6.00003H10.8614C10.9275 6.00067 10.993 5.98821 11.0543 5.96337C11.1155 5.93853 11.1712 5.90181 11.2182 5.85531C11.2651 5.80882 11.3024 5.75349 11.3278 5.69251C11.3533 5.63153 11.3664 5.56611 11.3664 5.50004C11.3664 5.43397 11.3533 5.36855 11.3278 5.30757C11.3024 5.24659 11.2651 5.19126 11.2182 5.14477C11.1712 5.09827 11.1155 5.06155 11.0543 5.03671C10.993 5.01187 10.9275 4.9994 10.8614 5.00004H10.1222V4.50003H11.1224Z" fill="black"/>
<path d="M0.49532 9.50007H2.9958C3.1276 9.49879 3.25356 9.44555 3.3463 9.35192C3.43905 9.2583 3.49108 9.13185 3.49108 9.00007C3.49108 8.8683 3.43905 8.74185 3.3463 8.64822C3.25356 8.55459 3.1276 8.50136 2.9958 8.50008H0.49532C0.363526 8.50136 0.237564 8.55459 0.144819 8.64822C0.052075 8.74185 4.68841e-05 8.8683 4.68841e-05 9.00007C4.68841e-05 9.13185 0.052075 9.2583 0.144819 9.35192C0.237564 9.44555 0.363526 9.49879 0.49532 9.50007Z" fill="black"/>
</svg>
