<svg width="40" height="50" viewBox="0 0 40 50" fill="none" xmlns="http://www.w3.org/2000/svg">
<path d="M2.07063 23.1115C-0.0188103 25.005 1.15975 28.4791 3.95258 28.7405C3.95323 28.7405 3.95388 28.7406 3.95453 28.7406L20.4244 30.3286L10.5246 44.127L10.5216 44.1312C9.75238 45.2152 9.84804 46.7275 10.81 47.6895C11.86 48.7395 13.5264 48.7818 14.6215 47.7659L37.9244 26.8923L37.9287 26.8884C40.0181 24.9949 38.8395 21.5207 36.0467 21.2594C36.046 21.2594 36.0454 21.2593 36.0448 21.2592L19.5749 19.6713L29.4747 5.87289L29.4777 5.86869C30.2459 4.78611 30.1515 3.27621 29.1929 2.31403C28.6916 1.80398 28.0101 1.51078 27.2949 1.49754C26.5832 1.48436 25.8946 1.74944 25.3755 2.23599L2.07494 23.1076L2.07493 23.1076L2.07063 23.1115Z" stroke="#118671" stroke-width="2"/>
</svg>
