<svg width="56" height="56" viewBox="0 0 56 56" fill="none" xmlns="http://www.w3.org/2000/svg">
<path d="M1 28H46.9C48.502 28 50.0681 27.5249 51.4001 26.6349C52.7322 25.7449 53.7704 24.4798 54.3834 22.9997C54.9965 21.5197 55.1569 19.891 54.8444 18.3198C54.5318 16.7485 53.7604 15.3052 52.6276 14.1724C51.4948 13.0396 50.0515 12.2682 48.4802 11.9556C46.909 11.6431 45.2803 11.8035 43.8003 12.4166C42.3202 13.0296 41.0551 14.0678 40.1651 15.3999C39.2751 16.7319 38.8 18.298 38.8 19.9M3.7 17.2H22.6C24.202 17.2 25.7681 16.7249 27.1001 15.8349C28.4322 14.9449 29.4704 13.6798 30.0834 12.1997C30.6965 10.7197 30.8569 9.09102 30.5444 7.51977C30.2318 5.94853 29.4604 4.50524 28.3276 3.37244C27.1948 2.23963 25.7515 1.46818 24.1802 1.15564C22.609 0.843103 20.9803 1.00351 19.5003 1.61658C18.0202 2.22965 16.7551 3.26785 15.8651 4.59988C14.9751 5.93192 14.5 7.49797 14.5 9.1L3.7 17.2ZM6.4 38.8H36.1V55C33.9517 55 31.8915 54.1466 30.3724 52.6276C28.8534 51.1085 28 49.0483 28 46.9L6.4 38.8Z" stroke="#118671" stroke-width="2" stroke-linecap="round" stroke-linejoin="round"/>
</svg>
